<svg xmlns="http://www.w3.org/2000/svg" xmlns:xlink="http://www.w3.org/1999/xlink" contentStyleType="text/css" height="170" preserveAspectRatio="none" style="width:1008px;height:170px;background:#FFFFFF;" version="1.1" viewBox="0 0 1008 170" width="1008" zoomAndPan="magnify"><script xmlns="" id="eppiocemhmnlbhjplcgkofciiegomcon"/><script xmlns=""/><script xmlns=""/><defs/><g><!--class Users--><g id="elem_Users"><rect codeLine="1" fill="#F1F1F1" height="96.8906" id="Users" rx="2.5" ry="2.5" style="stroke:#181818;stroke-width:0.5;" width="83" x="7" y="67.004"/><ellipse cx="27.85" cy="83.004" fill="#ADD1B2" rx="11" ry="11" style="stroke:#181818;stroke-width:1.0;"/><path d="M26.6469,83.879 L28.1,83.879 L28.1,83.9884 C28.1,84.3946 28.1313,84.5509 28.2094,84.7071 C28.3656,84.9571 28.6469,85.1134 28.9438,85.1134 C29.1938,85.1134 29.4594,84.9727 29.6156,84.754 C29.7406,84.5977 29.7719,84.4415 29.7719,83.9884 L29.7719,82.0665 C29.7719,81.9102 29.7719,81.8634 29.7563,81.7071 C29.6938,81.2384 29.3813,80.9259 28.9281,80.9259 C28.6781,80.9259 28.4125,81.0665 28.2406,81.2852 C28.1313,81.4571 28.1,81.6134 28.1,82.0665 L28.1,82.1915 L26.6469,82.1915 L26.6469,79.7852 L30.6313,79.7852 L30.6313,80.6446 C30.6313,81.0509 30.6625,81.2227 30.7406,81.379 C30.9125,81.629 31.1938,81.7852 31.475,81.7852 C31.7406,81.7852 32.0063,81.6446 32.1781,81.4259 C32.2875,81.254 32.3188,81.1134 32.3188,80.6446 L32.3188,78.0977 L24.6938,78.0977 C24.2563,78.0977 24.1313,78.1134 23.975,78.2071 C23.725,78.3634 23.5688,78.6602 23.5688,78.9415 C23.5688,79.2227 23.7094,79.4727 23.9281,79.6446 C24.0844,79.754 24.2719,79.7852 24.6938,79.7852 L24.9438,79.7852 L24.9438,86.3009 L24.6938,86.3009 C24.2875,86.3009 24.1313,86.3165 23.975,86.4259 C23.725,86.5977 23.5688,86.8634 23.5688,87.1602 C23.5688,87.4259 23.7094,87.6759 23.9281,87.8321 C24.0688,87.9571 24.3031,88.004 24.6938,88.004 L32.6938,88.004 L32.6938,85.4259 C32.6938,84.9884 32.6625,84.8477 32.5844,84.6915 C32.4125,84.4415 32.1313,84.2852 31.85,84.2852 C31.5844,84.2852 31.3188,84.3946 31.1469,84.6446 C31.0375,84.8009 31.0063,84.9415 31.0063,85.4259 L31.0063,86.3009 L26.6469,86.3009 L26.6469,83.879 Z " fill="#000000"/><text fill="#000000" font-family="sans-serif" font-size="14" lengthAdjust="spacing" textLength="38" x="43.15" y="87.8507">Users</text><line style="stroke:#181818;stroke-width:0.5;" x1="8" x2="89" y1="99.004" y2="99.004"/><ellipse cx="18" cy="112.6524" fill="#84BE84" rx="3" ry="3" style="stroke:#038048;stroke-width:1.0;"/><text fill="#000000" font-family="sans-serif" font-size="14" lengthAdjust="spacing" textLength="48" x="27" y="115.9991">ID (PK)</text><line style="stroke:#181818;stroke-width:1.0;" x1="8" x2="89" y1="123.3009" y2="123.3009"/><text fill="#000000" font-family="sans-serif" font-size="14" lengthAdjust="spacing" textLength="71" x="13" y="140.296">Username</text><text fill="#000000" font-family="sans-serif" font-size="14" lengthAdjust="spacing" textLength="66" x="13" y="156.5929">Password</text></g><!--class Roles--><g id="elem_Roles"><rect codeLine="8" fill="#F1F1F1" height="80.5938" id="Roles" rx="2.5" ry="2.5" style="stroke:#181818;stroke-width:0.5;" width="85" x="125" y="75.004"/><ellipse cx="146.3" cy="91.004" fill="#ADD1B2" rx="11" ry="11" style="stroke:#181818;stroke-width:1.0;"/><path d="M145.0969,91.879 L146.55,91.879 L146.55,91.9884 C146.55,92.3946 146.5813,92.5509 146.6594,92.7071 C146.8156,92.9571 147.0969,93.1134 147.3938,93.1134 C147.6438,93.1134 147.9094,92.9727 148.0656,92.754 C148.1906,92.5977 148.2219,92.4415 148.2219,91.9884 L148.2219,90.0665 C148.2219,89.9102 148.2219,89.8634 148.2063,89.7071 C148.1438,89.2384 147.8313,88.9259 147.3781,88.9259 C147.1281,88.9259 146.8625,89.0665 146.6906,89.2852 C146.5813,89.4571 146.55,89.6134 146.55,90.0665 L146.55,90.1915 L145.0969,90.1915 L145.0969,87.7852 L149.0813,87.7852 L149.0813,88.6446 C149.0813,89.0509 149.1125,89.2227 149.1906,89.379 C149.3625,89.629 149.6438,89.7852 149.925,89.7852 C150.1906,89.7852 150.4563,89.6446 150.6281,89.4259 C150.7375,89.254 150.7688,89.1134 150.7688,88.6446 L150.7688,86.0977 L143.1438,86.0977 C142.7063,86.0977 142.5813,86.1134 142.425,86.2071 C142.175,86.3634 142.0188,86.6602 142.0188,86.9415 C142.0188,87.2227 142.1594,87.4727 142.3781,87.6446 C142.5344,87.754 142.7219,87.7852 143.1438,87.7852 L143.3938,87.7852 L143.3938,94.3009 L143.1438,94.3009 C142.7375,94.3009 142.5813,94.3165 142.425,94.4259 C142.175,94.5977 142.0188,94.8634 142.0188,95.1602 C142.0188,95.4259 142.1594,95.6759 142.3781,95.8321 C142.5188,95.9571 142.7531,96.004 143.1438,96.004 L151.1438,96.004 L151.1438,93.4259 C151.1438,92.9884 151.1125,92.8477 151.0344,92.6915 C150.8625,92.4415 150.5813,92.2852 150.3,92.2852 C150.0344,92.2852 149.7688,92.3946 149.5969,92.6446 C149.4875,92.8009 149.4563,92.9415 149.4563,93.4259 L149.4563,94.3009 L145.0969,94.3009 L145.0969,91.879 Z " fill="#000000"/><text fill="#000000" font-family="sans-serif" font-size="14" lengthAdjust="spacing" textLength="39" x="161.7" y="95.8507">Roles</text><line style="stroke:#181818;stroke-width:0.5;" x1="126" x2="209" y1="107.004" y2="107.004"/><ellipse cx="136" cy="120.6524" fill="#84BE84" rx="3" ry="3" style="stroke:#038048;stroke-width:1.0;"/><text fill="#000000" font-family="sans-serif" font-size="14" lengthAdjust="spacing" textLength="48" x="145" y="123.9991">ID (PK)</text><line style="stroke:#181818;stroke-width:1.0;" x1="126" x2="209" y1="131.3009" y2="131.3009"/><text fill="#000000" font-family="sans-serif" font-size="14" lengthAdjust="spacing" textLength="73" x="131" y="148.296">RoleName</text></g><!--class Permissions--><g id="elem_Permissions"><rect codeLine="14" fill="#F1F1F1" height="80.5938" id="Permissions" rx="2.5" ry="2.5" style="stroke:#181818;stroke-width:0.5;" width="131" x="387" y="75.004"/><ellipse cx="408.3" cy="91.004" fill="#ADD1B2" rx="11" ry="11" style="stroke:#181818;stroke-width:1.0;"/><path d="M407.0969,91.879 L408.55,91.879 L408.55,91.9884 C408.55,92.3946 408.5813,92.5509 408.6594,92.7071 C408.8156,92.9571 409.0969,93.1134 409.3938,93.1134 C409.6438,93.1134 409.9094,92.9727 410.0656,92.754 C410.1906,92.5977 410.2219,92.4415 410.2219,91.9884 L410.2219,90.0665 C410.2219,89.9102 410.2219,89.8634 410.2063,89.7071 C410.1438,89.2384 409.8313,88.9259 409.3781,88.9259 C409.1281,88.9259 408.8625,89.0665 408.6906,89.2852 C408.5813,89.4571 408.55,89.6134 408.55,90.0665 L408.55,90.1915 L407.0969,90.1915 L407.0969,87.7852 L411.0813,87.7852 L411.0813,88.6446 C411.0813,89.0509 411.1125,89.2227 411.1906,89.379 C411.3625,89.629 411.6438,89.7852 411.925,89.7852 C412.1906,89.7852 412.4563,89.6446 412.6281,89.4259 C412.7375,89.254 412.7688,89.1134 412.7688,88.6446 L412.7688,86.0977 L405.1438,86.0977 C404.7063,86.0977 404.5813,86.1134 404.425,86.2071 C404.175,86.3634 404.0188,86.6602 404.0188,86.9415 C404.0188,87.2227 404.1594,87.4727 404.3781,87.6446 C404.5344,87.754 404.7219,87.7852 405.1438,87.7852 L405.3938,87.7852 L405.3938,94.3009 L405.1438,94.3009 C404.7375,94.3009 404.5813,94.3165 404.425,94.4259 C404.175,94.5977 404.0188,94.8634 404.0188,95.1602 C404.0188,95.4259 404.1594,95.6759 404.3781,95.8321 C404.5188,95.9571 404.7531,96.004 405.1438,96.004 L413.1438,96.004 L413.1438,93.4259 C413.1438,92.9884 413.1125,92.8477 413.0344,92.6915 C412.8625,92.4415 412.5813,92.2852 412.3,92.2852 C412.0344,92.2852 411.7688,92.3946 411.5969,92.6446 C411.4875,92.8009 411.4563,92.9415 411.4563,93.4259 L411.4563,94.3009 L407.0969,94.3009 L407.0969,91.879 Z " fill="#000000"/><text fill="#000000" font-family="sans-serif" font-size="14" lengthAdjust="spacing" textLength="85" x="423.7" y="95.8507">Permissions</text><line style="stroke:#181818;stroke-width:0.5;" x1="388" x2="517" y1="107.004" y2="107.004"/><ellipse cx="398" cy="120.6524" fill="#84BE84" rx="3" ry="3" style="stroke:#038048;stroke-width:1.0;"/><text fill="#000000" font-family="sans-serif" font-size="14" lengthAdjust="spacing" textLength="48" x="407" y="123.9991">ID (PK)</text><line style="stroke:#181818;stroke-width:1.0;" x1="388" x2="517" y1="131.3009" y2="131.3009"/><text fill="#000000" font-family="sans-serif" font-size="14" lengthAdjust="spacing" textLength="119" x="393" y="148.296">PermissionName</text></g><!--class Objects--><g id="elem_Objects"><rect codeLine="20" fill="#F1F1F1" height="80.5938" id="Objects" rx="2.5" ry="2.5" style="stroke:#181818;stroke-width:0.5;" width="102" x="740.5" y="75.004"/><ellipse cx="761.8" cy="91.004" fill="#ADD1B2" rx="11" ry="11" style="stroke:#181818;stroke-width:1.0;"/><path d="M760.5969,91.879 L762.05,91.879 L762.05,91.9884 C762.05,92.3946 762.0813,92.5509 762.1594,92.7071 C762.3156,92.9571 762.5969,93.1134 762.8938,93.1134 C763.1438,93.1134 763.4094,92.9727 763.5656,92.754 C763.6906,92.5977 763.7219,92.4415 763.7219,91.9884 L763.7219,90.0665 C763.7219,89.9102 763.7219,89.8634 763.7063,89.7071 C763.6438,89.2384 763.3313,88.9259 762.8781,88.9259 C762.6281,88.9259 762.3625,89.0665 762.1906,89.2852 C762.0813,89.4571 762.05,89.6134 762.05,90.0665 L762.05,90.1915 L760.5969,90.1915 L760.5969,87.7852 L764.5813,87.7852 L764.5813,88.6446 C764.5813,89.0509 764.6125,89.2227 764.6906,89.379 C764.8625,89.629 765.1438,89.7852 765.425,89.7852 C765.6906,89.7852 765.9563,89.6446 766.1281,89.4259 C766.2375,89.254 766.2688,89.1134 766.2688,88.6446 L766.2688,86.0977 L758.6438,86.0977 C758.2063,86.0977 758.0813,86.1134 757.925,86.2071 C757.675,86.3634 757.5188,86.6602 757.5188,86.9415 C757.5188,87.2227 757.6594,87.4727 757.8781,87.6446 C758.0344,87.754 758.2219,87.7852 758.6438,87.7852 L758.8938,87.7852 L758.8938,94.3009 L758.6438,94.3009 C758.2375,94.3009 758.0813,94.3165 757.925,94.4259 C757.675,94.5977 757.5188,94.8634 757.5188,95.1602 C757.5188,95.4259 757.6594,95.6759 757.8781,95.8321 C758.0188,95.9571 758.2531,96.004 758.6438,96.004 L766.6438,96.004 L766.6438,93.4259 C766.6438,92.9884 766.6125,92.8477 766.5344,92.6915 C766.3625,92.4415 766.0813,92.2852 765.8,92.2852 C765.5344,92.2852 765.2688,92.3946 765.0969,92.6446 C764.9875,92.8009 764.9563,92.9415 764.9563,93.4259 L764.9563,94.3009 L760.5969,94.3009 L760.5969,91.879 Z " fill="#000000"/><text fill="#000000" font-family="sans-serif" font-size="14" lengthAdjust="spacing" textLength="56" x="777.2" y="95.8507">Objects</text><line style="stroke:#181818;stroke-width:0.5;" x1="741.5" x2="841.5" y1="107.004" y2="107.004"/><ellipse cx="751.5" cy="120.6524" fill="#84BE84" rx="3" ry="3" style="stroke:#038048;stroke-width:1.0;"/><text fill="#000000" font-family="sans-serif" font-size="14" lengthAdjust="spacing" textLength="48" x="760.5" y="123.9991">ID (PK)</text><line style="stroke:#181818;stroke-width:1.0;" x1="741.5" x2="841.5" y1="131.3009" y2="131.3009"/><text fill="#000000" font-family="sans-serif" font-size="14" lengthAdjust="spacing" textLength="90" x="746.5" y="148.296">ObjectName</text></g><!--class UserRoles--><g id="elem_UserRoles"><rect codeLine="26" fill="#F1F1F1" height="80.5938" id="UserRoles" rx="2.5" ry="2.5" style="stroke:#181818;stroke-width:0.5;" width="106" x="245.5" y="75.004"/><ellipse cx="262.3" cy="91.004" fill="#ADD1B2" rx="11" ry="11" style="stroke:#181818;stroke-width:1.0;"/><path d="M261.0969,91.879 L262.55,91.879 L262.55,91.9884 C262.55,92.3946 262.5813,92.5509 262.6594,92.7071 C262.8156,92.9571 263.0969,93.1134 263.3938,93.1134 C263.6438,93.1134 263.9094,92.9727 264.0656,92.754 C264.1906,92.5977 264.2219,92.4415 264.2219,91.9884 L264.2219,90.0665 C264.2219,89.9102 264.2219,89.8634 264.2063,89.7071 C264.1438,89.2384 263.8313,88.9259 263.3781,88.9259 C263.1281,88.9259 262.8625,89.0665 262.6906,89.2852 C262.5813,89.4571 262.55,89.6134 262.55,90.0665 L262.55,90.1915 L261.0969,90.1915 L261.0969,87.7852 L265.0813,87.7852 L265.0813,88.6446 C265.0813,89.0509 265.1125,89.2227 265.1906,89.379 C265.3625,89.629 265.6438,89.7852 265.925,89.7852 C266.1906,89.7852 266.4563,89.6446 266.6281,89.4259 C266.7375,89.254 266.7688,89.1134 266.7688,88.6446 L266.7688,86.0977 L259.1438,86.0977 C258.7063,86.0977 258.5813,86.1134 258.425,86.2071 C258.175,86.3634 258.0188,86.6602 258.0188,86.9415 C258.0188,87.2227 258.1594,87.4727 258.3781,87.6446 C258.5344,87.754 258.7219,87.7852 259.1438,87.7852 L259.3938,87.7852 L259.3938,94.3009 L259.1438,94.3009 C258.7375,94.3009 258.5813,94.3165 258.425,94.4259 C258.175,94.5977 258.0188,94.8634 258.0188,95.1602 C258.0188,95.4259 258.1594,95.6759 258.3781,95.8321 C258.5188,95.9571 258.7531,96.004 259.1438,96.004 L267.1438,96.004 L267.1438,93.4259 C267.1438,92.9884 267.1125,92.8477 267.0344,92.6915 C266.8625,92.4415 266.5813,92.2852 266.3,92.2852 C266.0344,92.2852 265.7688,92.3946 265.5969,92.6446 C265.4875,92.8009 265.4563,92.9415 265.4563,93.4259 L265.4563,94.3009 L261.0969,94.3009 L261.0969,91.879 Z " fill="#000000"/><text fill="#000000" font-family="sans-serif" font-size="14" lengthAdjust="spacing" textLength="70" x="276.7" y="95.8507">UserRoles</text><line style="stroke:#181818;stroke-width:0.5;" x1="246.5" x2="350.5" y1="107.004" y2="107.004"/><line style="stroke:#181818;stroke-width:0.5;" x1="246.5" x2="350.5" y1="115.004" y2="115.004"/><ellipse cx="256.5" cy="128.6524" fill="#84BE84" rx="3" ry="3" style="stroke:#038048;stroke-width:1.0;"/><text fill="#000000" font-family="sans-serif" font-size="14" lengthAdjust="spacing" textLength="79" x="265.5" y="131.9991">UserID (PK)</text><ellipse cx="256.5" cy="144.9493" fill="#84BE84" rx="3" ry="3" style="stroke:#038048;stroke-width:1.0;"/><text fill="#000000" font-family="sans-serif" font-size="14" lengthAdjust="spacing" textLength="80" x="265.5" y="148.296">RoleID (PK)</text></g><!--class RolePermissions--><g id="elem_RolePermissions"><rect codeLine="31" fill="#F1F1F1" height="80.5938" id="RolePermissions" rx="2.5" ry="2.5" style="stroke:#181818;stroke-width:0.5;" width="152" x="553.5" y="75.004"/><ellipse cx="569.85" cy="91.004" fill="#ADD1B2" rx="11" ry="11" style="stroke:#181818;stroke-width:1.0;"/><path d="M568.6469,91.879 L570.1,91.879 L570.1,91.9884 C570.1,92.3946 570.1313,92.5509 570.2094,92.7071 C570.3656,92.9571 570.6469,93.1134 570.9438,93.1134 C571.1938,93.1134 571.4594,92.9727 571.6156,92.754 C571.7406,92.5977 571.7719,92.4415 571.7719,91.9884 L571.7719,90.0665 C571.7719,89.9102 571.7719,89.8634 571.7563,89.7071 C571.6938,89.2384 571.3813,88.9259 570.9281,88.9259 C570.6781,88.9259 570.4125,89.0665 570.2406,89.2852 C570.1313,89.4571 570.1,89.6134 570.1,90.0665 L570.1,90.1915 L568.6469,90.1915 L568.6469,87.7852 L572.6313,87.7852 L572.6313,88.6446 C572.6313,89.0509 572.6625,89.2227 572.7406,89.379 C572.9125,89.629 573.1938,89.7852 573.475,89.7852 C573.7406,89.7852 574.0063,89.6446 574.1781,89.4259 C574.2875,89.254 574.3188,89.1134 574.3188,88.6446 L574.3188,86.0977 L566.6938,86.0977 C566.2563,86.0977 566.1313,86.1134 565.975,86.2071 C565.725,86.3634 565.5688,86.6602 565.5688,86.9415 C565.5688,87.2227 565.7094,87.4727 565.9281,87.6446 C566.0844,87.754 566.2719,87.7852 566.6938,87.7852 L566.9438,87.7852 L566.9438,94.3009 L566.6938,94.3009 C566.2875,94.3009 566.1313,94.3165 565.975,94.4259 C565.725,94.5977 565.5688,94.8634 565.5688,95.1602 C565.5688,95.4259 565.7094,95.6759 565.9281,95.8321 C566.0688,95.9571 566.3031,96.004 566.6938,96.004 L574.6938,96.004 L574.6938,93.4259 C574.6938,92.9884 574.6625,92.8477 574.5844,92.6915 C574.4125,92.4415 574.1313,92.2852 573.85,92.2852 C573.5844,92.2852 573.3188,92.3946 573.1469,92.6446 C573.0375,92.8009 573.0063,92.9415 573.0063,93.4259 L573.0063,94.3009 L568.6469,94.3009 L568.6469,91.879 Z " fill="#000000"/><text fill="#000000" font-family="sans-serif" font-size="14" lengthAdjust="spacing" textLength="117" x="584.15" y="95.8507">RolePermissions</text><line style="stroke:#181818;stroke-width:0.5;" x1="554.5" x2="704.5" y1="107.004" y2="107.004"/><line style="stroke:#181818;stroke-width:0.5;" x1="554.5" x2="704.5" y1="115.004" y2="115.004"/><ellipse cx="564.5" cy="128.6524" fill="#84BE84" rx="3" ry="3" style="stroke:#038048;stroke-width:1.0;"/><text fill="#000000" font-family="sans-serif" font-size="14" lengthAdjust="spacing" textLength="80" x="573.5" y="131.9991">RoleID (PK)</text><ellipse cx="564.5" cy="144.9493" fill="#84BE84" rx="3" ry="3" style="stroke:#038048;stroke-width:1.0;"/><text fill="#000000" font-family="sans-serif" font-size="14" lengthAdjust="spacing" textLength="126" x="573.5" y="148.296">PermissionID (PK)</text></g><!--class UserObjects--><g id="elem_UserObjects"><rect codeLine="36" fill="#F1F1F1" height="96.8906" id="UserObjects" rx="2.5" ry="2.5" style="stroke:#181818;stroke-width:0.5;" width="123" x="878" y="67.004"/><ellipse cx="894.8" cy="83.004" fill="#ADD1B2" rx="11" ry="11" style="stroke:#181818;stroke-width:1.0;"/><path d="M893.5969,83.879 L895.05,83.879 L895.05,83.9884 C895.05,84.3946 895.0813,84.5509 895.1594,84.7071 C895.3156,84.9571 895.5969,85.1134 895.8938,85.1134 C896.1438,85.1134 896.4094,84.9727 896.5656,84.754 C896.6906,84.5977 896.7219,84.4415 896.7219,83.9884 L896.7219,82.0665 C896.7219,81.9102 896.7219,81.8634 896.7063,81.7071 C896.6438,81.2384 896.3313,80.9259 895.8781,80.9259 C895.6281,80.9259 895.3625,81.0665 895.1906,81.2852 C895.0813,81.4571 895.05,81.6134 895.05,82.0665 L895.05,82.1915 L893.5969,82.1915 L893.5969,79.7852 L897.5813,79.7852 L897.5813,80.6446 C897.5813,81.0509 897.6125,81.2227 897.6906,81.379 C897.8625,81.629 898.1438,81.7852 898.425,81.7852 C898.6906,81.7852 898.9563,81.6446 899.1281,81.4259 C899.2375,81.254 899.2688,81.1134 899.2688,80.6446 L899.2688,78.0977 L891.6438,78.0977 C891.2063,78.0977 891.0813,78.1134 890.925,78.2071 C890.675,78.3634 890.5188,78.6602 890.5188,78.9415 C890.5188,79.2227 890.6594,79.4727 890.8781,79.6446 C891.0344,79.754 891.2219,79.7852 891.6438,79.7852 L891.8938,79.7852 L891.8938,86.3009 L891.6438,86.3009 C891.2375,86.3009 891.0813,86.3165 890.925,86.4259 C890.675,86.5977 890.5188,86.8634 890.5188,87.1602 C890.5188,87.4259 890.6594,87.6759 890.8781,87.8321 C891.0188,87.9571 891.2531,88.004 891.6438,88.004 L899.6438,88.004 L899.6438,85.4259 C899.6438,84.9884 899.6125,84.8477 899.5344,84.6915 C899.3625,84.4415 899.0813,84.2852 898.8,84.2852 C898.5344,84.2852 898.2688,84.3946 898.0969,84.6446 C897.9875,84.8009 897.9563,84.9415 897.9563,85.4259 L897.9563,86.3009 L893.5969,86.3009 L893.5969,83.879 Z " fill="#000000"/><text fill="#000000" font-family="sans-serif" font-size="14" lengthAdjust="spacing" textLength="87" x="909.2" y="87.8507">UserObjects</text><line style="stroke:#181818;stroke-width:0.5;" x1="879" x2="1000" y1="99.004" y2="99.004"/><ellipse cx="889" cy="112.6524" fill="none" rx="3" ry="3" style="stroke:#038048;stroke-width:1.0;"/><text fill="#000000" font-family="sans-serif" font-size="14" lengthAdjust="spacing" textLength="93" x="898" y="115.9991">PermissionID</text><line style="stroke:#181818;stroke-width:0.5;" x1="879" x2="1000" y1="123.3009" y2="123.3009"/><ellipse cx="889" cy="136.9493" fill="#84BE84" rx="3" ry="3" style="stroke:#038048;stroke-width:1.0;"/><text fill="#000000" font-family="sans-serif" font-size="14" lengthAdjust="spacing" textLength="79" x="898" y="140.296">UserID (PK)</text><ellipse cx="889" cy="153.2462" fill="#84BE84" rx="3" ry="3" style="stroke:#038048;stroke-width:1.0;"/><text fill="#000000" font-family="sans-serif" font-size="14" lengthAdjust="spacing" textLength="97" x="898" y="156.5929">ObjectID (PK)</text></g><!--link Users to UserRoles--><g id="link_Users_UserRoles"><path codeLine="42" d="M89.6984,61.0891 C101.2464,49.0482 109.57,43.512 125,37.004 C159.808,22.322 174.681,23.597 210,37.004 C230.545,44.803 236.5852,47.1322 251.5462,61.9435 " fill="none" id="Users-UserRoles" style="stroke:#181818;stroke-width:1.0;"/><line style="stroke:#181818;stroke-width:1.0;" x1="89.8166" x2="84.0428" y1="66.7447" y2="61.2073"/><line style="stroke:#181818;stroke-width:1.0;" x1="91.8932" x2="86.1194" y1="64.5795" y2="59.0421"/><line style="stroke:#181818;stroke-width:1.0;" x1="89.6984" x2="84.161" y1="61.0891" y2="66.8629"/><line style="stroke:#181818;stroke-width:1.0;" x1="258.6528" x2="268.5593" y1="68.979" y2="70.3434"/><line style="stroke:#181818;stroke-width:1.0;" x1="258.6528" x2="260.1167" y1="68.979" y2="78.8712"/><line style="stroke:#181818;stroke-width:1.0;" x1="258.6528" x2="264.338" y1="68.979" y2="74.6073"/><ellipse cx="254.3889" cy="64.7577" fill="none" rx="4" ry="4" style="stroke:#181818;stroke-width:1.0;"/></g><!--link Roles to UserRoles--><g id="link_Roles_UserRoles"><path codeLine="43" d="M218.229,115.504 C229.952,115.504 215.676,115.504 227.399,115.504 " fill="none" id="Roles-UserRoles" style="stroke:#181818;stroke-width:1.0;"/><line style="stroke:#181818;stroke-width:1.0;" x1="214.229" x2="214.229" y1="119.504" y2="111.504"/><line style="stroke:#181818;stroke-width:1.0;" x1="217.229" x2="217.229" y1="119.504" y2="111.504"/><line style="stroke:#181818;stroke-width:1.0;" x1="218.229" x2="210.229" y1="115.504" y2="115.504"/><line style="stroke:#181818;stroke-width:1.0;" x1="237.399" x2="245.399" y1="115.504" y2="109.504"/><line style="stroke:#181818;stroke-width:1.0;" x1="237.399" x2="245.399" y1="115.504" y2="121.504"/><line style="stroke:#181818;stroke-width:1.0;" x1="237.399" x2="245.399" y1="115.504" y2="115.504"/><ellipse cx="231.399" cy="115.504" fill="none" rx="4" ry="4" style="stroke:#181818;stroke-width:1.0;"/></g><!--link Roles to RolePermissions--><g id="link_Roles_RolePermissions"><path codeLine="44" d="M202.2728,68.7217 C215.4208,53.9248 226.947,44.896 246,37.004 C301.843,13.873 460.376,18.754 518,37.004 C542.375,44.724 551.8319,48.8344 571.0339,63.8034 " fill="none" id="Roles-RolePermissions" style="stroke:#181818;stroke-width:1.0;"/><line style="stroke:#181818;stroke-width:1.0;" x1="202.606" x2="196.6258" y1="74.3687" y2="69.0549"/><line style="stroke:#181818;stroke-width:1.0;" x1="204.5987" x2="198.6185" y1="72.1261" y2="66.8123"/><line style="stroke:#181818;stroke-width:1.0;" x1="202.2728" x2="196.959" y1="68.7217" y2="74.7019"/><line style="stroke:#181818;stroke-width:1.0;" x1="578.9206" x2="588.9189" y1="69.9515" y2="70.138"/><line style="stroke:#181818;stroke-width:1.0;" x1="578.9206" x2="581.5411" y1="69.9515" y2="79.602"/><line style="stroke:#181818;stroke-width:1.0;" x1="578.9206" x2="585.23" y1="69.9515" y2="74.87"/><ellipse cx="574.1886" cy="66.2626" fill="none" rx="4" ry="4" style="stroke:#181818;stroke-width:1.0;"/></g><!--link Permissions to RolePermissions--><g id="link_Permissions_RolePermissions"><path codeLine="45" d="M526.184,115.504 C537.924,115.504 523.664,115.504 535.405,115.504 " fill="none" id="Permissions-RolePermissions" style="stroke:#181818;stroke-width:1.0;"/><line style="stroke:#181818;stroke-width:1.0;" x1="522.184" x2="522.184" y1="119.504" y2="111.504"/><line style="stroke:#181818;stroke-width:1.0;" x1="525.184" x2="525.184" y1="119.504" y2="111.504"/><line style="stroke:#181818;stroke-width:1.0;" x1="526.184" x2="518.184" y1="115.504" y2="115.504"/><line style="stroke:#181818;stroke-width:1.0;" x1="545.405" x2="553.405" y1="115.504" y2="109.504"/><line style="stroke:#181818;stroke-width:1.0;" x1="545.405" x2="553.405" y1="115.504" y2="121.504"/><line style="stroke:#181818;stroke-width:1.0;" x1="545.405" x2="553.405" y1="115.504" y2="115.504"/><ellipse cx="539.405" cy="115.504" fill="none" rx="4" ry="4" style="stroke:#181818;stroke-width:1.0;"/></g><!--link Users to UserObjects--><g id="link_Users_UserObjects"><path codeLine="46" d="M89.6984,61.0891 C101.2464,49.0482 109.57,43.512 125,37.004 C198.507,6 767.828,10.29 843,37.004 C860.908,43.368 864.022,43.1784 878.621,55.222 " fill="none" id="Users-UserObjects" style="stroke:#181818;stroke-width:1.0;"/><line style="stroke:#181818;stroke-width:1.0;" x1="89.8166" x2="84.0428" y1="66.7447" y2="61.2073"/><line style="stroke:#181818;stroke-width:1.0;" x1="91.8932" x2="86.1194" y1="64.5795" y2="59.0421"/><line style="stroke:#181818;stroke-width:1.0;" x1="89.6984" x2="84.161" y1="61.0891" y2="66.8629"/><line style="stroke:#181818;stroke-width:1.0;" x1="886.3349" x2="896.3242" y1="61.5857" y2="62.0483"/><line style="stroke:#181818;stroke-width:1.0;" x1="886.3349" x2="888.6878" y1="61.5857" y2="71.3049"/><line style="stroke:#181818;stroke-width:1.0;" x1="886.3349" x2="892.506" y1="61.5857" y2="66.6766"/><ellipse cx="881.7066" cy="57.7675" fill="none" rx="4" ry="4" style="stroke:#181818;stroke-width:1.0;"/></g><!--link Objects to UserObjects--><g id="link_Objects_UserObjects"><path codeLine="47" d="M850.664,115.504 C862.39,115.504 848.117,115.504 859.843,115.504 " fill="none" id="Objects-UserObjects" style="stroke:#181818;stroke-width:1.0;"/><line style="stroke:#181818;stroke-width:1.0;" x1="846.664" x2="846.664" y1="119.504" y2="111.504"/><line style="stroke:#181818;stroke-width:1.0;" x1="849.664" x2="849.664" y1="119.504" y2="111.504"/><line style="stroke:#181818;stroke-width:1.0;" x1="850.664" x2="842.664" y1="115.504" y2="115.504"/><line style="stroke:#181818;stroke-width:1.0;" x1="869.843" x2="877.843" y1="115.504" y2="109.504"/><line style="stroke:#181818;stroke-width:1.0;" x1="869.843" x2="877.843" y1="115.504" y2="121.504"/><line style="stroke:#181818;stroke-width:1.0;" x1="869.843" x2="877.843" y1="115.504" y2="115.504"/><ellipse cx="863.843" cy="115.504" fill="none" rx="4" ry="4" style="stroke:#181818;stroke-width:1.0;"/></g><!--link Permissions to UserObjects--><g id="link_Permissions_UserObjects"><path codeLine="48" d="M498.2838,69.7103 C515.6748,54.7499 531.233,44.781 554,37.004 C614.775,16.245 782.485,15.499 843,37.004 C860.908,43.368 864.022,43.1784 878.621,55.222 " fill="none" id="Permissions-UserObjects" style="stroke:#181818;stroke-width:1.0;"/><line style="stroke:#181818;stroke-width:1.0;" x1="497.86" x2="492.6428" y1="75.3512" y2="69.2864"/><line style="stroke:#181818;stroke-width:1.0;" x1="500.1342" x2="494.9171" y1="73.3948" y2="67.33"/><line style="stroke:#181818;stroke-width:1.0;" x1="498.2838" x2="492.219" y1="69.7103" y2="74.9274"/><line style="stroke:#181818;stroke-width:1.0;" x1="886.3349" x2="896.3242" y1="61.5857" y2="62.0483"/><line style="stroke:#181818;stroke-width:1.0;" x1="886.3349" x2="888.6878" y1="61.5857" y2="71.3049"/><line style="stroke:#181818;stroke-width:1.0;" x1="886.3349" x2="892.506" y1="61.5857" y2="66.6766"/><ellipse cx="881.7066" cy="57.7675" fill="none" rx="4" ry="4" style="stroke:#181818;stroke-width:1.0;"/></g><!--SRC=[VL512i8m4BplAt9KIdxXHGGDWW-ekeU8JI0fYBJzksxMaZIfoILaTcPsXg3fTVyM5u_EYm74zpHYlnCRTTY6bvJX8e9fEmmFrNh_ikuE4m2omTa-iMf0X2CPH8r2rsdljJLLPQHb-jFrWRU-gcLAfgCkoxo4fEecn9sHPSkrr2cRaSWgNMXRdhrCm8p_hcJ8tpQEqWwn5N2t6fhrWBJJEYFVzCiFSuzoKdecqmy0]--></g></svg>